# xmcd CD database file
#
# Track frame offsets:
#	150
#	10853
#	21604
#	32466
#	43776
#	54428
#	65510
#	76763
#	91480
#	100136
#
# Disc length: 1483 seconds
#
# Revision: 0
# Processed by: cddbd v1.5.2PL0 Copyright (c) Steve Scherf et al.
# Submitted via: CDex 1.51
#
DISCID=7505c90a
DTITLE=Patsy Cline - Honky Tonk Merry Go Round
DYEAR=1900
DGENRE=Country
TTITLE0=Lovesick Blues
TTITLE1=Honky Tonk Merry Go Round
TTITLE2=Gotta Lot of Rythm In My Soul
TTITLE3=A Stranger In My Arms
TTITLE4=I Love You Honey
TTITLE5=I Don't Wanta
TTITLE6=There He Goes
TTITLE7=Then You'll Know
TTITLE8=Come on In
TTITLE9=Stop The World (and Let Me Off)
EXTD=
EXTT0=
EXTT1=
EXTT2=
EXTT3=
EXTT4=
EXTT5=
EXTT6=
EXTT7=
EXTT8=
EXTT9=
PLAYORDER=
